<svg xmlns="http://www.w3.org/2000/svg" version="1.1" xmlns:xlink="http://www.w3.org/1999/xlink" xmlns:svgjs="http://svgjs.dev/svgjs" viewBox="0 0 8.880614393067813 7.709645042495947"><g transform="matrix(0.8479436562256106,0,0,0.8479436562256106,2.702886999309672,3.2128443791195638)"><g transform="matrix(1,0,0,1,0,0)"><g clip-path="url(#SvgjsClipPath42809)"><path d=" M -1.1 0.31599999999999984 L 0.47181326909573684 -2.4064617114328173 L 3.61550333139381 -2.4064617114328173 L 5.187216776893463 0.31599999999999984 L 3.61550333139381 3.038461711432817 L 0.47181326909573684 3.038461711432817 L -1.1 0.31599999999999984 Z" fill="#3a868f" transform="matrix(1,0,0,1,0,0)" fill-rule="nonzero"></path></g></g><g transform="matrix(1,0,0,1,0,0)"><path d=" M 0.722 0.6259999999999999 Q 0.722 0.6319999999999999 0.717 0.6319999999999999 Q 0.6970000000000001 0.6319999999999999 0.655 0.6299999999999999 Q 0.611 0.6279999999999999 0.592 0.6279999999999999 Q 0.5670000000000001 0.6279999999999999 0.531 0.6299999999999999 Q 0.497 0.6319999999999999 0.47700000000000004 0.6319999999999999 Q 0.47300000000000003 0.6319999999999999 0.47300000000000003 0.6259999999999999 Q 0.47300000000000003 0.6199999999999999 0.47700000000000004 0.6199999999999999 Q 0.503 0.6199999999999999 0.5145 0.6144999999999999 Q 0.526 0.6089999999999999 0.526 0.5949999999999999 Q 0.526 0.5779999999999998 0.506 0.5379999999999999 L 0.402 0.3329999999999999 L 0.224 0.3329999999999999 L 0.153 0.4899999999999999 Q 0.14 0.5189999999999999 0.14 0.5439999999999999 Q 0.14 0.5799999999999998 0.1655 0.5999999999999999 Q 0.191 0.6199999999999999 0.234 0.6199999999999999 Q 0.23900000000000002 0.6199999999999999 0.23900000000000002 0.6259999999999999 Q 0.23900000000000002 0.6319999999999999 0.234 0.6319999999999999 Q 0.216 0.6319999999999999 0.182 0.6299999999999999 Q 0.14400000000000002 0.6279999999999999 0.116 0.6279999999999999 Q 0.089 0.6279999999999999 0.051000000000000004 0.6299999999999999 Q 0.017 0.6319999999999999 -0.004 0.6319999999999999 Q -0.008 0.6319999999999999 -0.008 0.6259999999999999 Q -0.008 0.6199999999999999 -0.004 0.6199999999999999 Q 0.024 0.6199999999999999 0.043000000000000003 0.6084999999999999 Q 0.062 0.5969999999999999 0.081 0.5674999999999999 Q 0.1 0.5379999999999999 0.126 0.47999999999999987 L 0.343 0.0029999999999998916 Q 0.34500000000000003 -1.1102230246251565e-16 0.352 -1.1102230246251565e-16 Q 0.36 -1.1102230246251565e-16 0.361 0.0029999999999998916 L 0.611 0.4949999999999999 Q 0.646 0.5659999999999998 0.669 0.5929999999999999 Q 0.6920000000000001 0.6199999999999999 0.717 0.6199999999999999 Q 0.722 0.6199999999999999 0.722 0.6259999999999999 M 0.23700000000000002 0.3049999999999999 L 0.388 0.3049999999999999 L 0.308 0.1469999999999999 L 0.23700000000000002 0.3049999999999999 M 1.2275302734375 0.04999999999999993 Q 1.2030302734375 0.018999999999999906 1.1590302734375 0.018999999999999906 Q 1.1570302734375 0.018999999999999906 1.1570302734375 0.0129999999999999 Q 1.1570302734375 0.006999999999999895 1.1590302734375 0.006999999999999895 L 1.2070302734375 0.007999999999999896 Q 1.2450302734375 0.009999999999999898 1.2680302734375 0.009999999999999898 Q 1.2870302734374999 0.009999999999999898 1.3230302734375 0.007999999999999896 L 1.3690302734375002 0.006999999999999895 Q 1.3710302734375 0.006999999999999895 1.3710302734375 0.0129999999999999 Q 1.3710302734375 0.018999999999999906 1.3690302734375002 0.018999999999999906 Q 1.3300302734375 0.018999999999999906 1.3080302734375 0.04999999999999993 Q 1.2860302734375 0.08099999999999985 1.2860302734375 0.1349999999999999 L 1.2860302734375 0.4129999999999999 Q 1.2860302734375 0.4829999999999999 1.2550302734375 0.5359999999999999 Q 1.2240302734375001 0.5889999999999999 1.1675302734375 0.6174999999999999 Q 1.1110302734375 0.6459999999999999 1.0370302734374999 0.6459999999999999 Q 0.9630302734375 0.6459999999999999 0.9060302734375 0.6179999999999999 Q 0.8490302734375 0.5899999999999999 0.8165302734375 0.5364999999999999 Q 0.7840302734375 0.4829999999999999 0.7840302734375 0.4109999999999999 L 0.7840302734375 0.08799999999999986 Q 0.7840302734375 0.05799999999999983 0.7785302734375 0.04399999999999993 Q 0.7730302734375 0.029999999999999916 0.7585302734375 0.024499999999999855 Q 0.7440302734375 0.018999999999999906 0.7130302734375 0.018999999999999906 Q 0.7100302734375 0.018999999999999906 0.7100302734375 0.0129999999999999 Q 0.7100302734375 0.006999999999999895 0.7130302734375 0.006999999999999895 L 0.7660302734375 0.007999999999999896 Q 0.8120302734375 0.009999999999999898 0.8390302734375 0.009999999999999898 Q 0.8690302734375 0.009999999999999898 0.9150302734375 0.007999999999999896 L 0.9660302734375 0.006999999999999895 Q 0.9690302734375 0.006999999999999895 0.9690302734375 0.0129999999999999 Q 0.9690302734375 0.018999999999999906 0.9660302734375 0.018999999999999906 Q 0.9350302734375 0.018999999999999906 0.9205302734375 0.02499999999999991 Q 0.9060302734375 0.030999999999999917 0.9005302734375 0.045499999999999874 Q 0.8950302734375 0.05999999999999983 0.8950302734375 0.08999999999999986 L 0.8950302734375 0.3759999999999999 Q 0.8950302734375 0.4949999999999999 0.9420302734375 0.5519999999999999 Q 0.9890302734375 0.6089999999999999 1.0750302734375001 0.6089999999999999 Q 1.1580302734375 0.6089999999999999 1.2050302734375 0.5584999999999999 Q 1.2520302734375002 0.5079999999999999 1.2520302734375002 0.4139999999999999 L 1.2520302734375002 0.1349999999999999 Q 1.2520302734375002 0.08099999999999985 1.2275302734375 0.04999999999999993 M 2.094033203125 0.6259999999999999 Q 2.094033203125 0.6319999999999999 2.092033203125 0.6319999999999999 L 1.914033203125 0.6319999999999999 Q 1.892033203125 0.6319999999999999 1.832033203125 0.5494999999999999 Q 1.772033203125 0.46699999999999986 1.687033203125 0.3189999999999999 Q 1.679033203125 0.3199999999999999 1.664033203125 0.3199999999999999 Q 1.625033203125 0.3199999999999999 1.609033203125 0.3189999999999999 L 1.609033203125 0.5509999999999999 Q 1.609033203125 0.5819999999999999 1.614033203125 0.5959999999999999 Q 1.619033203125 0.6099999999999999 1.633533203125 0.6149999999999999 Q 1.648033203125 0.6199999999999999 1.680033203125 0.6199999999999999 Q 1.682033203125 0.6199999999999999 1.682033203125 0.6259999999999999 Q 1.682033203125 0.6319999999999999 1.680033203125 0.6319999999999999 Q 1.647033203125 0.6319999999999999 1.628033203125 0.6309999999999999 L 1.552033203125 0.6299999999999999 L 1.479033203125 0.6309999999999999 Q 1.459033203125 0.6319999999999999 1.425033203125 0.6319999999999999 Q 1.422033203125 0.6319999999999999 1.422033203125 0.6259999999999999 Q 1.422033203125 0.6199999999999999 1.425033203125 0.6199999999999999 Q 1.457033203125 0.6199999999999999 1.471533203125 0.6149999999999999 Q 1.486033203125 0.6099999999999999 1.491533203125 0.5954999999999999 Q 1.497033203125 0.5809999999999998 1.497033203125 0.5509999999999999 L 1.497033203125 0.08799999999999986 Q 1.497033203125 0.05799999999999983 1.492033203125 0.04399999999999993 Q 1.487033203125 0.029999999999999916 1.472033203125 0.024499999999999855 Q 1.457033203125 0.018999999999999906 1.426033203125 0.018999999999999906 Q 1.424033203125 0.018999999999999906 1.424033203125 0.0129999999999999 Q 1.424033203125 0.006999999999999895 1.426033203125 0.006999999999999895 L 1.479033203125 0.007999999999999896 Q 1.525033203125 0.009999999999999898 1.552033203125 0.009999999999999898 Q 1.581033203125 0.009999999999999898 1.616033203125 0.006999999999999895 Q 1.6270332031249999 0.005999999999999894 1.644533203125 0.004999999999999893 Q 1.662033203125 0.0039999999999998925 1.686033203125 0.0039999999999998925 Q 1.7780332031250001 0.0039999999999998925 1.8285332031250001 0.03749999999999987 Q 1.879033203125 0.07099999999999984 1.879033203125 0.1309999999999999 Q 1.879033203125 0.17699999999999988 1.851033203125 0.21899999999999986 Q 1.823033203125 0.2609999999999999 1.7780332031250001 0.28699999999999987 Q 1.858033203125 0.4129999999999999 1.912533203125 0.4839999999999999 Q 1.967033203125 0.5549999999999999 2.009533203125 0.5874999999999999 Q 2.052033203125 0.6199999999999999 2.092033203125 0.6199999999999999 Q 2.094033203125 0.6199999999999999 2.094033203125 0.6259999999999999 M 1.667033203125 0.2939999999999999 Q 1.703033203125 0.2939999999999999 1.724033203125 0.28299999999999986 Q 1.745033203125 0.2719999999999999 1.754533203125 0.24499999999999988 Q 1.764033203125 0.21799999999999986 1.764033203125 0.16899999999999987 Q 1.764033203125 0.08699999999999986 1.7400332031249999 0.05599999999999983 Q 1.716033203125 0.02499999999999991 1.671033203125 0.02499999999999991 Q 1.6370332031250001 0.02499999999999991 1.623033203125 0.039999999999999925 Q 1.609033203125 0.05499999999999994 1.609033203125 0.08999999999999986 L 1.609033203125 0.28999999999999987 Q 1.633033203125 0.2939999999999999 1.667033203125 0.2939999999999999 M 2.80403125 0.6259999999999999 Q 2.80403125 0.6319999999999999 2.79903125 0.6319999999999999 Q 2.77903125 0.6319999999999999 2.7370312500000002 0.6299999999999999 Q 2.6930312499999998 0.6279999999999999 2.67403125 0.6279999999999999 Q 2.64903125 0.6279999999999999 2.61303125 0.6299999999999999 Q 2.57903125 0.6319999999999999 2.55903125 0.6319999999999999 Q 2.55503125 0.6319999999999999 2.55503125 0.6259999999999999 Q 2.55503125 0.6199999999999999 2.55903125 0.6199999999999999 Q 2.58503125 0.6199999999999999 2.59653125 0.6144999999999999 Q 2.60803125 0.6089999999999999 2.60803125 0.5949999999999999 Q 2.60803125 0.5779999999999998 2.5880312500000002 0.5379999999999999 L 2.48403125 0.3329999999999999 L 2.30603125 0.3329999999999999 L 2.23503125 0.4899999999999999 Q 2.22203125 0.5189999999999999 2.22203125 0.5439999999999999 Q 2.22203125 0.5799999999999998 2.24753125 0.5999999999999999 Q 2.27303125 0.6199999999999999 2.31603125 0.6199999999999999 Q 2.32103125 0.6199999999999999 2.32103125 0.6259999999999999 Q 2.32103125 0.6319999999999999 2.31603125 0.6319999999999999 Q 2.29803125 0.6319999999999999 2.26403125 0.6299999999999999 Q 2.22603125 0.6279999999999999 2.19803125 0.6279999999999999 Q 2.17103125 0.6279999999999999 2.13303125 0.6299999999999999 Q 2.09903125 0.6319999999999999 2.07803125 0.6319999999999999 Q 2.07403125 0.6319999999999999 2.07403125 0.6259999999999999 Q 2.07403125 0.6199999999999999 2.07803125 0.6199999999999999 Q 2.10603125 0.6199999999999999 2.12503125 0.6084999999999999 Q 2.14403125 0.5969999999999999 2.16303125 0.5674999999999999 Q 2.18203125 0.5379999999999999 2.20803125 0.47999999999999987 L 2.42503125 0.0029999999999998916 Q 2.42703125 -1.1102230246251565e-16 2.43403125 -1.1102230246251565e-16 Q 2.44203125 -1.1102230246251565e-16 2.4430312499999998 0.0029999999999998916 L 2.6930312499999998 0.4949999999999999 Q 2.72803125 0.5659999999999998 2.75103125 0.5929999999999999 Q 2.77403125 0.6199999999999999 2.79903125 0.6199999999999999 Q 2.80403125 0.6199999999999999 2.80403125 0.6259999999999999 M 2.31903125 0.3049999999999999 L 2.47003125 0.3049999999999999 L 2.39003125 0.1469999999999999 L 2.31903125 0.3049999999999999 M 2.85853466796875 0.6265 Q 2.84203466796875 0.6099999999999999 2.84203466796875 0.5819999999999999 Q 2.84203466796875 0.5559999999999999 2.85853466796875 0.5399999999999999 Q 2.87503466796875 0.5239999999999999 2.90303466796875 0.5239999999999999 Q 2.93103466796875 0.5239999999999999 2.94653466796875 0.5394999999999999 Q 2.96203466796875 0.5549999999999999 2.96203466796875 0.5819999999999999 Q 2.96203466796875 0.6109999999999999 2.94653466796875 0.6269999999999999 Q 2.93103466796875 0.6429999999999999 2.90303466796875 0.6429999999999999 Q 2.87503466796875 0.6429999999999999 2.85853466796875 0.6265 M 3.76197802734375 0.6259999999999999 Q 3.76197802734375 0.6319999999999999 3.75697802734375 0.6319999999999999 Q 3.73697802734375 0.6319999999999999 3.6949780273437502 0.6299999999999999 Q 3.6509780273437498 0.6279999999999999 3.63197802734375 0.6279999999999999 Q 3.60697802734375 0.6279999999999999 3.57097802734375 0.6299999999999999 Q 3.53697802734375 0.6319999999999999 3.51697802734375 0.6319999999999999 Q 3.51297802734375 0.6319999999999999 3.51297802734375 0.6259999999999999 Q 3.51297802734375 0.6199999999999999 3.51697802734375 0.6199999999999999 Q 3.54297802734375 0.6199999999999999 3.55447802734375 0.6144999999999999 Q 3.56597802734375 0.6089999999999999 3.56597802734375 0.5949999999999999 Q 3.56597802734375 0.5779999999999998 3.5459780273437502 0.5379999999999999 L 3.44197802734375 0.3329999999999999 L 3.26397802734375 0.3329999999999999 L 3.19297802734375 0.4899999999999999 Q 3.17997802734375 0.5189999999999999 3.17997802734375 0.5439999999999999 Q 3.17997802734375 0.5799999999999998 3.20547802734375 0.5999999999999999 Q 3.23097802734375 0.6199999999999999 3.27397802734375 0.6199999999999999 Q 3.27897802734375 0.6199999999999999 3.27897802734375 0.6259999999999999 Q 3.27897802734375 0.6319999999999999 3.27397802734375 0.6319999999999999 Q 3.25597802734375 0.6319999999999999 3.22197802734375 0.6299999999999999 Q 3.18397802734375 0.6279999999999999 3.15597802734375 0.6279999999999999 Q 3.12897802734375 0.6279999999999999 3.09097802734375 0.6299999999999999 Q 3.05697802734375 0.6319999999999999 3.03597802734375 0.6319999999999999 Q 3.03197802734375 0.6319999999999999 3.03197802734375 0.6259999999999999 Q 3.03197802734375 0.6199999999999999 3.03597802734375 0.6199999999999999 Q 3.06397802734375 0.6199999999999999 3.08297802734375 0.6084999999999999 Q 3.10197802734375 0.5969999999999999 3.12097802734375 0.5674999999999999 Q 3.13997802734375 0.5379999999999999 3.16597802734375 0.47999999999999987 L 3.38297802734375 0.0029999999999998916 Q 3.38497802734375 -1.1102230246251565e-16 3.39197802734375 -1.1102230246251565e-16 Q 3.39997802734375 -1.1102230246251565e-16 3.4009780273437498 0.0029999999999998916 L 3.6509780273437498 0.4949999999999999 Q 3.68597802734375 0.5659999999999998 3.70897802734375 0.5929999999999999 Q 3.73197802734375 0.6199999999999999 3.75697802734375 0.6199999999999999 Q 3.76197802734375 0.6199999999999999 3.76197802734375 0.6259999999999999 M 3.27697802734375 0.3049999999999999 L 3.42797802734375 0.3049999999999999 L 3.34797802734375 0.1469999999999999 L 3.27697802734375 0.3049999999999999 M 3.9879814453125 0.5959999999999999 Q 3.9929814453125 0.6099999999999999 4.0074814453125 0.6149999999999999 Q 4.0219814453125 0.6199999999999999 4.0539814453125 0.6199999999999999 Q 4.0569814453125 0.6199999999999999 4.0569814453125 0.6259999999999999 Q 4.0569814453125 0.6319999999999999 4.0539814453125 0.6319999999999999 Q 4.0209814453125 0.6319999999999999 4.0019814453125 0.6309999999999999 L 3.9259814453125 0.6299999999999999 L 3.8519814453125 0.6309999999999999 Q 3.8319814453125 0.6319999999999999 3.7979814453125 0.6319999999999999 Q 3.7959814453125 0.6319999999999999 3.7959814453125 0.6259999999999999 Q 3.7959814453125 0.6199999999999999 3.7979814453125 0.6199999999999999 Q 3.8299814453125 0.6199999999999999 3.8449814453125 0.6149999999999999 Q 3.8599814453125 0.6099999999999999 3.8654814453125 0.5954999999999999 Q 3.8709814453125 0.5809999999999998 3.8709814453125 0.5509999999999999 L 3.8709814453125 0.08799999999999986 Q 3.8709814453125 0.05799999999999983 3.8654814453125 0.04399999999999993 Q 3.8599814453125 0.029999999999999916 3.8449814453125 0.024499999999999855 Q 3.8299814453125 0.018999999999999906 3.7979814453125 0.018999999999999906 Q 3.7959814453125 0.018999999999999906 3.7959814453125 0.0129999999999999 Q 3.7959814453125 0.006999999999999895 3.7979814453125 0.006999999999999895 L 3.8519814453125 0.007999999999999896 Q 3.8979814453125 0.009999999999999898 3.9259814453125 0.009999999999999898 Q 3.9569814453125 0.009999999999999898 4.0029814453125 0.007999999999999896 L 4.0539814453125 0.006999999999999895 Q 4.0569814453125 0.006999999999999895 4.0569814453125 0.0129999999999999 Q 4.0569814453125 0.018999999999999906 4.0539814453125 0.018999999999999906 Q 4.0229814453125 0.018999999999999906 4.0079814453125 0.02499999999999991 Q 3.9929814453125 0.030999999999999917 3.9879814453125 0.045499999999999874 Q 3.9829814453125 0.05999999999999983 3.9829814453125 0.08999999999999986 L 3.9829814453125 0.5509999999999999 Q 3.9829814453125 0.5819999999999999 3.9879814453125 0.5959999999999999" fill="#173054" fill-rule="nonzero"></path></g><g transform="matrix(1,0,0,1,0,0)"><path d=" M -1.2782656738281244 3.917061711432817 Q -1.2782656738281244 3.920661711432817 -1.2806656738281244 3.920661711432817 Q -1.2920656738281244 3.920661711432817 -1.3160656738281244 3.919461711432817 Q -1.3400656738281245 3.918261711432817 -1.3508656738281244 3.918261711432817 Q -1.3640656738281245 3.918261711432817 -1.3844656738281245 3.919461711432817 Q -1.4036656738281243 3.920661711432817 -1.4138656738281243 3.920661711432817 Q -1.4162656738281243 3.920661711432817 -1.4162656738281243 3.917061711432817 Q -1.4162656738281243 3.913461711432817 -1.4138656738281243 3.913461711432817 Q -1.3916656738281243 3.913461711432817 -1.3814656738281244 3.909261711432817 Q -1.3712656738281244 3.905061711432817 -1.3712656738281244 3.8948617114328172 Q -1.3712656738281244 3.8864617114328173 -1.3790656738281244 3.869061711432817 L -1.4480656738281243 3.722061711432817 L -1.5614656738281243 3.722061711432817 L -1.6130656738281244 3.844461711432817 Q -1.6214656738281243 3.864861711432817 -1.6214656738281243 3.878061711432817 Q -1.6214656738281243 3.913461711432817 -1.5626656738281244 3.913461711432817 Q -1.5596656738281243 3.913461711432817 -1.5596656738281243 3.917061711432817 Q -1.5596656738281243 3.920661711432817 -1.5626656738281244 3.920661711432817 Q -1.5734656738281243 3.920661711432817 -1.5938656738281243 3.919461711432817 Q -1.6166656738281244 3.918261711432817 -1.6334656738281244 3.918261711432817 Q -1.6490656738281244 3.918261711432817 -1.6694656738281244 3.919461711432817 Q -1.6874656738281244 3.920661711432817 -1.6994656738281244 3.920661711432817 Q -1.7024656738281243 3.920661711432817 -1.7024656738281243 3.917061711432817 Q -1.7024656738281243 3.913461711432817 -1.6994656738281244 3.913461711432817 Q -1.6826656738281243 3.913461711432817 -1.6709656738281244 3.907161711432817 Q -1.6592656738281244 3.900861711432817 -1.6487656738281244 3.884961711432817 Q -1.6382656738281243 3.869061711432817 -1.6256656738281243 3.839061711432817 L -1.4990656738281243 3.540261711432817 Q -1.4978656738281244 3.538461711432817 -1.4948656738281243 3.538461711432817 Q -1.4918656738281244 3.538461711432817 -1.4912656738281242 3.540261711432817 L -1.3496656738281243 3.8384617114328172 Q -1.3292656738281243 3.882861711432817 -1.3148656738281244 3.898161711432817 Q -1.3004656738281244 3.913461711432817 -1.2806656738281244 3.913461711432817 Q -1.2782656738281244 3.913461711432817 -1.2782656738281244 3.917061711432817 M -1.5560656738281244 3.709461711432817 L -1.4540656738281243 3.709461711432817 L -1.5080656738281244 3.595461711432817 L -1.5560656738281244 3.709461711432817 M -1.1672498535156244 3.899061711432817 Q -1.1639498535156245 3.907461711432817 -1.1549498535156244 3.910461711432817 Q -1.1459498535156245 3.913461711432817 -1.1255498535156245 3.913461711432817 Q -1.1243498535156244 3.913461711432817 -1.1243498535156244 3.917061711432817 Q -1.1243498535156244 3.920661711432817 -1.1255498535156245 3.920661711432817 Q -1.1423498535156245 3.920661711432817 -1.1519498535156245 3.920061711432817 L -1.1897498535156246 3.919461711432817 L -1.2251498535156244 3.920061711432817 Q -1.2353498535156244 3.920661711432817 -1.2527498535156245 3.920661711432817 Q -1.2539498535156244 3.920661711432817 -1.2539498535156244 3.917061711432817 Q -1.2539498535156244 3.913461711432817 -1.2527498535156245 3.913461711432817 Q -1.2323498535156245 3.913461711432817 -1.2233498535156244 3.910461711432817 Q -1.2143498535156245 3.907461711432817 -1.2110498535156244 3.899061711432817 Q -1.2077498535156246 3.8906617114328172 -1.2077498535156246 3.872061711432817 L -1.2077498535156246 3.688461711432817 Q -1.2077498535156246 3.670461711432817 -1.2110498535156244 3.662061711432817 Q -1.2143498535156245 3.653661711432817 -1.2236498535156244 3.650361711432817 Q -1.2329498535156245 3.647061711432817 -1.2527498535156245 3.647061711432817 Q -1.2539498535156244 3.647061711432817 -1.2539498535156244 3.643461711432817 Q -1.2539498535156244 3.639861711432817 -1.2527498535156245 3.639861711432817 L -1.2251498535156244 3.6404617114328173 Q -1.2035498535156244 3.641661711432817 -1.1897498535156246 3.641661711432817 Q -1.1741498535156245 3.641661711432817 -1.1513498535156246 3.6404617114328173 L -1.1255498535156245 3.639861711432817 Q -1.1243498535156244 3.639861711432817 -1.1243498535156244 3.643461711432817 Q -1.1243498535156244 3.647061711432817 -1.1255498535156245 3.647061711432817 Q -1.1447498535156244 3.647061711432817 -1.1543498535156245 3.650661711432817 Q -1.1639498535156245 3.654261711432817 -1.1672498535156244 3.6629617114328172 Q -1.1705498535156245 3.671661711432817 -1.1705498535156245 3.689661711432817 L -1.1705498535156245 3.872061711432817 Q -1.1705498535156245 3.8906617114328172 -1.1672498535156244 3.899061711432817 M -0.7445267089843745 3.891261711432817 Q -0.7427267089843745 3.891261711432817 -0.7415267089843744 3.893961711432817 Q -0.7403267089843745 3.896661711432817 -0.7421267089843745 3.897861711432817 Q -0.7667267089843744 3.914061711432817 -0.7850267089843745 3.9209617114328172 Q -0.8033267089843745 3.927861711432817 -0.8237267089843745 3.927861711432817 Q -0.8579267089843745 3.927861711432817 -0.8804267089843745 3.908661711432817 Q -0.9029267089843744 3.889461711432817 -0.9029267089843744 3.845061711432817 L -0.9029267089843744 3.687861711432817 Q -0.9029267089843744 3.6728617114328173 -0.9050267089843744 3.6665617114328173 Q -0.9071267089843744 3.660261711432817 -0.9134267089843745 3.6581617114328173 Q -0.9197267089843745 3.656061711432817 -0.9341267089843744 3.656061711432817 Q -0.9359267089843745 3.656061711432817 -0.9359267089843745 3.652161711432817 Q -0.9359267089843745 3.6482617114328173 -0.9341267089843744 3.6482617114328173 Q -0.9101267089843744 3.6482617114328173 -0.8936267089843745 3.635661711432817 Q -0.8771267089843745 3.623061711432817 -0.8759267089843745 3.603261711432817 Q -0.8759267089843745 3.601461711432817 -0.8717267089843744 3.601461711432817 Q -0.8669267089843745 3.601461711432817 -0.8669267089843745 3.603261711432817 L -0.8669267089843745 3.647061711432817 Q -0.8177267089843745 3.646461711432817 -0.7583267089843745 3.641661711432817 Q -0.7565267089843745 3.641661711432817 -0.7553267089843745 3.645261711432817 Q -0.7541267089843745 3.6488617114328172 -0.7541267089843745 3.654861711432817 Q -0.7541267089843745 3.660261711432817 -0.7562267089843745 3.666261711432817 Q -0.7583267089843745 3.672261711432817 -0.7601267089843745 3.671661711432817 Q -0.8075267089843745 3.659061711432817 -0.8669267089843745 3.657861711432817 L -0.8669267089843745 3.8258617114328173 Q -0.8669267089843745 3.867861711432817 -0.8507267089843744 3.887961711432817 Q -0.8345267089843744 3.908061711432817 -0.8015267089843745 3.908061711432817 Q -0.7697267089843745 3.908061711432817 -0.7457267089843744 3.891861711432817 L -0.7445267089843745 3.891261711432817 M -0.37762670898437445 3.917061711432817 Q -0.37762670898437445 3.920661711432817 -0.37942670898437447 3.920661711432817 Q -0.39622670898437445 3.920661711432817 -0.40642670898437444 3.920061711432817 L -0.4424267089843745 3.919461711432817 L -0.47902670898437444 3.920061711432817 Q -0.48862670898437444 3.920661711432817 -0.5054267089843745 3.920661711432817 Q -0.5072267089843745 3.920661711432817 -0.5072267089843745 3.917061711432817 Q -0.5072267089843745 3.913461711432817 -0.5054267089843745 3.913461711432817 Q -0.48562670898437443 3.913461711432817 -0.4766267089843744 3.910461711432817 Q -0.4676267089843745 3.907461711432817 -0.46432670898437445 3.898761711432817 Q -0.4610267089843745 3.890061711432817 -0.4610267089843745 3.872061711432817 L -0.4610267089843745 3.784461711432817 L -0.6290267089843744 3.784461711432817 L -0.6290267089843744 3.872061711432817 Q -0.6290267089843744 3.8906617114328172 -0.6257267089843744 3.899061711432817 Q -0.6224267089843745 3.907461711432817 -0.6134267089843745 3.910461711432817 Q -0.6044267089843745 3.913461711432817 -0.5840267089843745 3.913461711432817 Q -0.5828267089843744 3.913461711432817 -0.5828267089843744 3.917061711432817 Q -0.5828267089843744 3.920661711432817 -0.5840267089843745 3.920661711432817 Q -0.6008267089843744 3.920661711432817 -0.6104267089843745 3.920061711432817 L -0.6476267089843745 3.919461711432817 L -0.6830267089843745 3.920061711432817 Q -0.6932267089843744 3.920661711432817 -0.7106267089843744 3.920661711432817 Q -0.7118267089843744 3.920661711432817 -0.7118267089843744 3.917061711432817 Q -0.7118267089843744 3.913461711432817 -0.7106267089843744 3.913461711432817 Q -0.6908267089843745 3.913461711432817 -0.6815267089843744 3.910461711432817 Q -0.6722267089843744 3.907461711432817 -0.6686267089843745 3.898761711432817 Q -0.6650267089843744 3.890061711432817 -0.6650267089843744 3.872061711432817 L -0.6650267089843744 3.688461711432817 Q -0.6650267089843744 3.670461711432817 -0.6683267089843744 3.662061711432817 Q -0.6716267089843744 3.653661711432817 -0.6809267089843745 3.650361711432817 Q -0.6902267089843744 3.647061711432817 -0.7100267089843745 3.647061711432817 Q -0.7112267089843745 3.647061711432817 -0.7112267089843745 3.643461711432817 Q -0.7112267089843745 3.639861711432817 -0.7100267089843745 3.639861711432817 L -0.6830267089843745 3.6404617114328173 Q -0.6602267089843744 3.641661711432817 -0.6476267089843745 3.641661711432817 Q -0.6326267089843745 3.641661711432817 -0.6098267089843744 3.6404617114328173 L -0.5840267089843745 3.639861711432817 Q -0.5828267089843744 3.639861711432817 -0.5828267089843744 3.643461711432817 Q -0.5828267089843744 3.647061711432817 -0.5840267089843745 3.647061711432817 Q -0.6032267089843745 3.647061711432817 -0.6128267089843744 3.650661711432817 Q -0.6224267089843745 3.654261711432817 -0.6257267089843744 3.6629617114328172 Q -0.6290267089843744 3.671661711432817 -0.6290267089843744 3.689661711432817 L -0.6290267089843744 3.7736617114328173 L -0.4610267089843745 3.7736617114328173 L -0.4610267089843745 3.689661711432817 Q -0.4610267089843745 3.671661711432817 -0.46432670898437445 3.6629617114328172 Q -0.4676267089843745 3.654261711432817 -0.47692670898437445 3.650661711432817 Q -0.4862267089843745 3.647061711432817 -0.5054267089843745 3.647061711432817 Q -0.5072267089843745 3.647061711432817 -0.5072267089843745 3.643461711432817 Q -0.5072267089843745 3.639861711432817 -0.5054267089843745 3.639861711432817 L -0.47902670898437444 3.6404617114328173 Q -0.45742670898437443 3.641661711432817 -0.4424267089843745 3.641661711432817 Q -0.4292267089843745 3.641661711432817 -0.40642670898437444 3.6404617114328173 L -0.37942670898437447 3.639861711432817 Q -0.37762670898437445 3.639861711432817 -0.37762670898437445 3.643461711432817 Q -0.37762670898437445 3.647061711432817 -0.37942670898437447 3.647061711432817 Q -0.39922670898437446 3.647061711432817 -0.40852670898437443 3.650361711432817 Q -0.41782670898437446 3.653661711432817 -0.42142670898437445 3.662061711432817 Q -0.42502670898437445 3.670461711432817 -0.42502670898437445 3.688461711432817 L -0.42502670898437445 3.872061711432817 Q -0.42502670898437445 3.890061711432817 -0.42142670898437445 3.898761711432817 Q -0.41782670898437446 3.907461711432817 -0.40852670898437443 3.910461711432817 Q -0.39922670898437446 3.913461711432817 -0.37942670898437447 3.913461711432817 Q -0.37762670898437445 3.913461711432817 -0.37762670898437445 3.917061711432817 M -0.07252114257812448 3.887661711432817 Q -0.07012114257812446 3.887661711432817 -0.0692211425781245 3.890361711432817 Q -0.0683211425781245 3.893061711432817 -0.07072114257812451 3.894261711432817 L -0.13372114257812448 3.924261711432817 Q -0.1361211425781245 3.925461711432817 -0.1379211425781245 3.925461711432817 Q -0.1475211425781245 3.925461711432817 -0.1568211425781245 3.913761711432817 Q -0.1661211425781245 3.902061711432817 -0.16852114257812448 3.881661711432817 L -0.20812114257812447 3.903861711432817 Q -0.22912114257812446 3.915261711432817 -0.24292114257812447 3.920061711432817 Q -0.25672114257812445 3.924861711432817 -0.26872114257812446 3.924861711432817 Q -0.2897211425781245 3.924861711432817 -0.30412114257812445 3.912261711432817 Q -0.31852114257812447 3.899661711432817 -0.31852114257812447 3.883461711432817 Q -0.31852114257812447 3.860661711432817 -0.30352114257812446 3.846861711432817 Q -0.28852114257812445 3.833061711432817 -0.24772114257812447 3.8180617114328173 L -0.16912114257812447 3.789261711432817 L -0.16912114257812447 3.718461711432817 Q -0.16912114257812447 3.681861711432817 -0.17962114257812448 3.6650617114328172 Q -0.19012114257812449 3.6482617114328173 -0.21232114257812448 3.6482617114328173 Q -0.23992114257812447 3.6482617114328173 -0.2528211425781245 3.665361711432817 Q -0.26572114257812446 3.682461711432817 -0.2729211425781245 3.710061711432817 Q -0.2759211425781245 3.720261711432817 -0.2810211425781245 3.726561711432817 Q -0.2861211425781245 3.732861711432817 -0.2963211425781245 3.732861711432817 Q -0.30592114257812447 3.732861711432817 -0.3119211425781245 3.7271617114328173 Q -0.3179211425781245 3.7214617114328172 -0.3179211425781245 3.7130617114328173 Q -0.3179211425781245 3.698061711432817 -0.29662114257812444 3.679461711432817 Q -0.27532114257812446 3.6608617114328172 -0.24472114257812447 3.647661711432817 Q -0.21412114257812448 3.634461711432817 -0.18952114257812447 3.634461711432817 Q -0.16372114257812448 3.634461711432817 -0.14812114257812448 3.6509617114328172 Q -0.13252114257812447 3.667461711432817 -0.13252114257812447 3.700461711432817 L -0.13252114257812447 3.8504617114328172 Q -0.13252114257812447 3.895461711432817 -0.10312114257812449 3.895461711432817 Q -0.09112114257812448 3.895461711432817 -0.07372114257812451 3.887661711432817 L -0.07252114257812448 3.887661711432817 M -0.16912114257812447 3.873261711432817 L -0.16912114257812447 3.870861711432817 L -0.16912114257812447 3.797061711432817 L -0.23512114257812447 3.822861711432817 Q -0.25732114257812444 3.831261711432817 -0.2660211425781245 3.8420617114328173 Q -0.27472114257812447 3.852861711432817 -0.27472114257812447 3.867861711432817 Q -0.27472114257812447 3.882861711432817 -0.26512114257812447 3.893061711432817 Q -0.25552114257812447 3.903261711432817 -0.24232114257812448 3.903261711432817 Q -0.22792114257812449 3.903261711432817 -0.2105211425781245 3.894261711432817 L -0.16912114257812447 3.873261711432817 M 0.1449952636718755 3.891261711432817 Q 0.1467952636718755 3.891261711432817 0.14799526367187552 3.893961711432817 Q 0.14919526367187552 3.896661711432817 0.1473952636718755 3.897861711432817 Q 0.12279526367187552 3.914061711432817 0.1044952636718755 3.9209617114328172 Q 0.08619526367187552 3.927861711432817 0.06579526367187552 3.927861711432817 Q 0.031595263671875526 3.927861711432817 0.00909526367187552 3.908661711432817 Q -0.01340473632812448 3.889461711432817 -0.01340473632812448 3.845061711432817 L -0.01340473632812448 3.687861711432817 Q -0.01340473632812448 3.6728617114328173 -0.015504736328124477 3.6665617114328173 Q -0.017604736328124475 3.660261711432817 -0.023904736328124475 3.6581617114328173 Q -0.030204736328124475 3.656061711432817 -0.04460473632812448 3.656061711432817 Q -0.046404736328124474 3.656061711432817 -0.046404736328124474 3.652161711432817 Q -0.046404736328124474 3.6482617114328173 -0.04460473632812448 3.6482617114328173 Q -0.020604736328124477 3.6482617114328173 -0.004104736328124484 3.635661711432817 Q 0.012395263671875517 3.623061711432817 0.013595263671875524 3.603261711432817 Q 0.013595263671875524 3.601461711432817 0.01779526367187552 3.601461711432817 Q 0.022595263671875518 3.601461711432817 0.022595263671875518 3.603261711432817 L 0.022595263671875518 3.647061711432817 Q 0.07179526367187553 3.646461711432817 0.1311952636718755 3.641661711432817 Q 0.1329952636718755 3.641661711432817 0.1341952636718755 3.645261711432817 Q 0.13539526367187552 3.6488617114328172 0.13539526367187552 3.654861711432817 Q 0.13539526367187552 3.660261711432817 0.13329526367187552 3.666261711432817 Q 0.1311952636718755 3.672261711432817 0.1293952636718755 3.671661711432817 Q 0.08199526367187551 3.659061711432817 0.022595263671875518 3.657861711432817 L 0.022595263671875518 3.8258617114328173 Q 0.022595263671875518 3.867861711432817 0.038795263671875524 3.887961711432817 Q 0.054995263671875516 3.908061711432817 0.08799526367187552 3.908061711432817 Q 0.11979526367187551 3.908061711432817 0.1437952636718755 3.891861711432817 L 0.1449952636718755 3.891261711432817 M 0.8272005371093755 3.917061711432817 Q 0.8272005371093755 3.920661711432817 0.8260005371093755 3.920661711432817 Q 0.8098005371093755 3.920661711432817 0.8008005371093755 3.920061711432817 L 0.7630005371093754 3.919461711432817 L 0.7264005371093755 3.920061711432817 Q 0.7168005371093755 3.920661711432817 0.7006005371093755 3.920661711432817 Q 0.6994005371093754 3.920661711432817 0.6994005371093754 3.917061711432817 Q 0.6994005371093754 3.913461711432817 0.7006005371093755 3.913461711432817 Q 0.7204005371093755 3.913461711432817 0.7297005371093754 3.910461711432817 Q 0.7390005371093755 3.907461711432817 0.7423005371093754 3.898761711432817 Q 0.7456005371093755 3.890061711432817 0.7456005371093755 3.872061711432817 L 0.7456005371093755 3.743661711432817 Q 0.7456005371093755 3.695661711432817 0.7294005371093755 3.672261711432817 Q 0.7132005371093755 3.6488617114328172 0.6802005371093754 3.6488617114328172 Q 0.6298005371093754 3.6488617114328172 0.5896005371093755 3.698061711432817 Q 0.5920005371093755 3.709461711432817 0.5920005371093755 3.725661711432817 L 0.5920005371093755 3.872061711432817 Q 0.5920005371093755 3.890061711432817 0.5953005371093755 3.898761711432817 Q 0.5986005371093754 3.907461711432817 0.6076005371093754 3.910461711432817 Q 0.6166005371093755 3.913461711432817 0.6364005371093755 3.913461711432817 Q 0.6382005371093755 3.913461711432817 0.6382005371093755 3.917061711432817 Q 0.6382005371093755 3.920661711432817 0.6364005371093755 3.920661711432817 Q 0.6208005371093754 3.920661711432817 0.6118005371093755 3.920061711432817 L 0.5734005371093754 3.919461711432817 L 0.5368005371093755 3.920061711432817 Q 0.5278005371093755 3.920661711432817 0.5116005371093755 3.920661711432817 Q 0.5104005371093755 3.920661711432817 0.5104005371093755 3.917061711432817 Q 0.5104005371093755 3.913461711432817 0.5116005371093755 3.913461711432817 Q 0.5314005371093755 3.913461711432817 0.5407005371093755 3.910461711432817 Q 0.5500005371093755 3.907461711432817 0.5533005371093755 3.898761711432817 Q 0.5566005371093754 3.890061711432817 0.5566005371093754 3.872061711432817 L 0.5566005371093754 3.743661711432817 Q 0.5566005371093754 3.695661711432817 0.5404005371093754 3.672261711432817 Q 0.5242005371093754 3.6488617114328172 0.4912005371093755 3.6488617114328172 Q 0.44260053710937547 3.6488617114328172 0.4024005371093755 3.695661711432817 L 0.4024005371093755 3.872061711432817 Q 0.4024005371093755 3.8906617114328172 0.4057005371093755 3.899061711432817 Q 0.40900053710937545 3.907461711432817 0.41800053710937546 3.910461711432817 Q 0.42700053710937547 3.913461711432817 0.44740053710937544 3.913461711432817 Q 0.4486005371093755 3.913461711432817 0.4486005371093755 3.917061711432817 Q 0.4486005371093755 3.920661711432817 0.44740053710937544 3.920661711432817 Q 0.43120053710937545 3.920661711432817 0.4222005371093755 3.920061711432817 L 0.38380053710937545 3.919461711432817 L 0.3478005371093755 3.920061711432817 Q 0.3382005371093755 3.920661711432817 0.3226005371093755 3.920661711432817 Q 0.3208005371093755 3.920661711432817 0.3208005371093755 3.917061711432817 Q 0.3208005371093755 3.913461711432817 0.3226005371093755 3.913461711432817 Q 0.34180053710937547 3.913461711432817 0.3508005371093755 3.910461711432817 Q 0.3598005371093755 3.907461711432817 0.3631005371093755 3.898761711432817 Q 0.3664005371093755 3.890061711432817 0.3664005371093755 3.872061711432817 L 0.3664005371093755 3.688461711432817 Q 0.3664005371093755 3.670461711432817 0.3631005371093755 3.662061711432817 Q 0.3598005371093755 3.653661711432817 0.3502005371093755 3.650361711432817 Q 0.3406005371093755 3.647061711432817 0.3208005371093755 3.647061711432817 Q 0.31960053710937547 3.647061711432817 0.31960053710937547 3.643461711432817 Q 0.31960053710937547 3.639861711432817 0.3208005371093755 3.639861711432817 L 0.36460053710937546 3.6404617114328173 L 0.3910005371093755 3.639861711432817 Q 0.39880053710937546 3.639861711432817 0.4006005371093755 3.641961711432817 Q 0.4024005371093755 3.6440617114328173 0.4024005371093755 3.651261711432817 L 0.4024005371093755 3.685461711432817 Q 0.42820053710937545 3.657861711432817 0.45370053710937547 3.644961711432817 Q 0.4792005371093755 3.632061711432817 0.5074005371093755 3.632061711432817 Q 0.5386005371093755 3.632061711432817 0.5593005371093754 3.646461711432817 Q 0.5800005371093755 3.6608617114328172 0.5878005371093755 3.689661711432817 Q 0.6148005371093754 3.659061711432817 0.6412005371093754 3.645561711432817 Q 0.6676005371093754 3.632061711432817 0.6964005371093754 3.632061711432817 Q 0.7366005371093755 3.632061711432817 0.7588005371093755 3.655761711432817 Q 0.7810005371093754 3.679461711432817 0.7810005371093754 3.725661711432817 L 0.7810005371093754 3.872061711432817 Q 0.7810005371093754 3.890061711432817 0.7843005371093754 3.898761711432817 Q 0.7876005371093755 3.907461711432817 0.7969005371093754 3.910461711432817 Q 0.8062005371093754 3.913461711432817 0.8260005371093755 3.913461711432817 Q 0.8272005371093755 3.913461711432817 0.8272005371093755 3.917061711432817 M 1.1190867675781253 3.887661711432817 Q 1.1214867675781255 3.887661711432817 1.1223867675781254 3.890361711432817 Q 1.1232867675781253 3.893061711432817 1.1208867675781253 3.894261711432817 L 1.0578867675781254 3.924261711432817 Q 1.0554867675781254 3.925461711432817 1.0536867675781254 3.925461711432817 Q 1.0440867675781254 3.925461711432817 1.0347867675781255 3.913761711432817 Q 1.0254867675781254 3.902061711432817 1.0230867675781254 3.881661711432817 L 0.9834867675781254 3.903861711432817 Q 0.9624867675781255 3.915261711432817 0.9486867675781254 3.920061711432817 Q 0.9348867675781254 3.924861711432817 0.9228867675781254 3.924861711432817 Q 0.9018867675781255 3.924861711432817 0.8874867675781254 3.912261711432817 Q 0.8730867675781254 3.899661711432817 0.8730867675781254 3.883461711432817 Q 0.8730867675781254 3.860661711432817 0.8880867675781254 3.846861711432817 Q 0.9030867675781254 3.833061711432817 0.9438867675781254 3.8180617114328173 L 1.0224867675781255 3.789261711432817 L 1.0224867675781255 3.718461711432817 Q 1.0224867675781255 3.681861711432817 1.0119867675781253 3.6650617114328172 Q 1.0014867675781254 3.6482617114328173 0.9792867675781254 3.6482617114328173 Q 0.9516867675781254 3.6482617114328173 0.9387867675781254 3.665361711432817 Q 0.9258867675781254 3.682461711432817 0.9186867675781254 3.710061711432817 Q 0.9156867675781254 3.720261711432817 0.9105867675781254 3.726561711432817 Q 0.9054867675781254 3.732861711432817 0.8952867675781254 3.732861711432817 Q 0.8856867675781255 3.732861711432817 0.8796867675781255 3.7271617114328173 Q 0.8736867675781255 3.7214617114328172 0.8736867675781255 3.7130617114328173 Q 0.8736867675781255 3.698061711432817 0.8949867675781255 3.679461711432817 Q 0.9162867675781254 3.6608617114328172 0.9468867675781254 3.647661711432817 Q 0.9774867675781254 3.634461711432817 1.0020867675781253 3.634461711432817 Q 1.0278867675781254 3.634461711432817 1.0434867675781254 3.6509617114328172 Q 1.0590867675781255 3.667461711432817 1.0590867675781255 3.700461711432817 L 1.0590867675781255 3.8504617114328172 Q 1.0590867675781255 3.895461711432817 1.0884867675781253 3.895461711432817 Q 1.1004867675781254 3.895461711432817 1.1178867675781254 3.887661711432817 L 1.1190867675781253 3.887661711432817 M 1.0224867675781255 3.873261711432817 L 1.0224867675781255 3.870861711432817 L 1.0224867675781255 3.797061711432817 L 0.9564867675781255 3.822861711432817 Q 0.9342867675781255 3.831261711432817 0.9255867675781254 3.8420617114328173 Q 0.9168867675781254 3.852861711432817 0.9168867675781254 3.867861711432817 Q 0.9168867675781254 3.882861711432817 0.9264867675781254 3.893061711432817 Q 0.9360867675781255 3.903261711432817 0.9492867675781255 3.903261711432817 Q 0.9636867675781254 3.903261711432817 0.9810867675781254 3.894261711432817 L 1.0224867675781255 3.873261711432817 M 1.4452031738281255 3.917061711432817 Q 1.4452031738281255 3.920661711432817 1.4434031738281254 3.920661711432817 L 1.3804031738281255 3.920661711432817 Q 1.3612031738281254 3.920661711432817 1.3582031738281255 3.9188617114328173 Q 1.3552031738281254 3.917061711432817 1.3399031738281253 3.8927617114328172 Q 1.3246031738281254 3.868461711432817 1.2970031738281254 3.833661711432817 L 1.2502031738281254 3.7736617114328173 L 1.2256031738281254 3.7976617114328173 L 1.2256031738281254 3.872061711432817 Q 1.2256031738281254 3.8906617114328172 1.2289031738281255 3.899061711432817 Q 1.2322031738281254 3.907461711432817 1.2412031738281255 3.910461711432817 Q 1.2502031738281254 3.913461711432817 1.2706031738281254 3.913461711432817 Q 1.2718031738281255 3.913461711432817 1.2718031738281255 3.917061711432817 Q 1.2718031738281255 3.920661711432817 1.2706031738281254 3.920661711432817 Q 1.2538031738281255 3.920661711432817 1.2442031738281254 3.920061711432817 L 1.2070031738281255 3.919461711432817 L 1.1716031738281254 3.920061711432817 Q 1.1614031738281254 3.920661711432817 1.1440031738281253 3.920661711432817 Q 1.1428031738281255 3.920661711432817 1.1428031738281255 3.917061711432817 Q 1.1428031738281255 3.913461711432817 1.1440031738281253 3.913461711432817 Q 1.1638031738281254 3.913461711432817 1.1731031738281255 3.910461711432817 Q 1.1824031738281253 3.907461711432817 1.1860031738281254 3.898761711432817 Q 1.1896031738281254 3.890061711432817 1.1896031738281254 3.872061711432817 L 1.1896031738281254 3.688461711432817 Q 1.1896031738281254 3.670461711432817 1.1863031738281253 3.662061711432817 Q 1.1830031738281255 3.653661711432817 1.1737031738281254 3.650361711432817 Q 1.1644031738281255 3.647061711432817 1.1446031738281255 3.647061711432817 Q 1.1434031738281254 3.647061711432817 1.1434031738281254 3.643461711432817 Q 1.1434031738281254 3.639861711432817 1.1446031738281255 3.639861711432817 L 1.1716031738281254 3.6404617114328173 Q 1.1944031738281253 3.641661711432817 1.2070031738281255 3.641661711432817 Q 1.2220031738281254 3.641661711432817 1.2448031738281253 3.6404617114328173 L 1.2706031738281254 3.639861711432817 Q 1.2718031738281255 3.639861711432817 1.2718031738281255 3.643461711432817 Q 1.2718031738281255 3.647061711432817 1.2706031738281254 3.647061711432817 Q 1.2514031738281255 3.647061711432817 1.2418031738281254 3.650661711432817 Q 1.2322031738281254 3.654261711432817 1.2289031738281255 3.6629617114328172 Q 1.2256031738281254 3.671661711432817 1.2256031738281254 3.689661711432817 L 1.2256031738281254 3.783261711432817 L 1.3210031738281254 3.687261711432817 Q 1.3450031738281254 3.664461711432817 1.3450031738281254 3.656061711432817 Q 1.3450031738281254 3.651261711432817 1.3384031738281255 3.649161711432817 Q 1.3318031738281255 3.647061711432817 1.3168031738281254 3.647061711432817 Q 1.3150031738281254 3.647061711432817 1.3150031738281254 3.643461711432817 Q 1.3150031738281254 3.639861711432817 1.3168031738281254 3.639861711432817 L 1.3390031738281254 3.6404617114328173 Q 1.3582031738281255 3.641661711432817 1.3786031738281255 3.641661711432817 Q 1.4026031738281253 3.641661711432817 1.4206031738281255 3.6404617114328173 Q 1.4260031738281254 3.639861711432817 1.4332031738281255 3.639861711432817 Q 1.4350031738281255 3.639861711432817 1.4350031738281255 3.643461711432817 Q 1.4350031738281255 3.647061711432817 1.4332031738281255 3.647061711432817 Q 1.4128031738281255 3.647061711432817 1.3849031738281254 3.6581617114328173 Q 1.3570031738281254 3.669261711432817 1.3336031738281253 3.692061711432817 L 1.2760031738281254 3.749061711432817 L 1.3174031738281253 3.8018617114328173 Q 1.3618031738281253 3.858861711432817 1.3792031738281254 3.879261711432817 Q 1.3966031738281255 3.899661711432817 1.4095031738281254 3.906561711432817 Q 1.4224031738281253 3.913461711432817 1.4434031738281254 3.913461711432817 Q 1.4452031738281255 3.913461711432817 1.4452031738281255 3.917061711432817 M 1.6794838378906254 3.888261711432817 Q 1.6812838378906254 3.888261711432817 1.6827838378906255 3.890361711432817 Q 1.6842838378906255 3.892461711432817 1.6830838378906254 3.894261711432817 Q 1.6404838378906255 3.927861711432817 1.5900838378906255 3.927861711432817 Q 1.5474838378906255 3.927861711432817 1.5171838378906255 3.907761711432817 Q 1.4868838378906255 3.887661711432817 1.4715838378906254 3.855261711432817 Q 1.4562838378906255 3.822861711432817 1.4562838378906255 3.7856617114328173 Q 1.4562838378906255 3.744261711432817 1.4760838378906256 3.709161711432817 Q 1.4958838378906254 3.674061711432817 1.5288838378906255 3.653661711432817 Q 1.5618838378906255 3.633261711432817 1.6008838378906254 3.633261711432817 Q 1.6410838378906254 3.633261711432817 1.6614838378906254 3.655461711432817 Q 1.6818838378906253 3.677661711432817 1.6818838378906253 3.715461711432817 Q 1.6818838378906253 3.7214617114328172 1.6803838378906255 3.724161711432817 Q 1.6788838378906255 3.726861711432817 1.6746838378906255 3.726861711432817 L 1.5000838378906254 3.727461711432817 Q 1.4964838378906256 3.744261711432817 1.4964838378906256 3.764661711432817 Q 1.4964838378906256 3.805461711432817 1.5102838378906254 3.838161711432817 Q 1.5240838378906254 3.870861711432817 1.5501838378906254 3.889461711432817 Q 1.5762838378906254 3.908061711432817 1.6116838378906255 3.908061711432817 Q 1.6518838378906255 3.908061711432817 1.6788838378906255 3.888261711432817 L 1.6794838378906254 3.888261711432817 M 1.5321838378906254 3.664761711432817 Q 1.5108838378906255 3.684261711432817 1.5018838378906254 3.718461711432817 L 1.6398838378906255 3.716061711432817 Q 1.6404838378906255 3.681861711432817 1.6257838378906255 3.663561711432817 Q 1.6110838378906254 3.645261711432817 1.5822838378906254 3.645261711432817 Q 1.5534838378906255 3.645261711432817 1.5321838378906254 3.664761711432817 M 1.7796993652343756 3.719961711432817 Q 1.7889993652343754 3.7334617114328172 1.8027993652343755 3.742461711432817 Q 1.8165993652343755 3.751461711432817 1.8393993652343754 3.763461711432817 Q 1.8639993652343754 3.776661711432817 1.8789993652343755 3.786561711432817 Q 1.8939993652343754 3.796461711432817 1.9041993652343754 3.811461711432817 Q 1.9143993652343756 3.826461711432817 1.9143993652343756 3.847461711432817 Q 1.9143993652343756 3.869661711432817 1.9020993652343754 3.887961711432817 Q 1.8897993652343754 3.906261711432817 1.8669993652343755 3.917061711432817 Q 1.8441993652343756 3.927861711432817 1.8135993652343756 3.927861711432817 Q 1.7697993652343755 3.927861711432817 1.7409993652343756 3.9068617114328172 Q 1.7379993652343755 3.905661711432817 1.7370993652343756 3.903261711432817 Q 1.7361993652343755 3.900861711432817 1.7355993652343755 3.895461711432817 L 1.7295993652343755 3.836061711432817 Q 1.7289993652343756 3.833661711432817 1.7322993652343754 3.833061711432817 Q 1.7355993652343755 3.832461711432817 1.7367993652343754 3.834861711432817 Q 1.7451993652343756 3.869661711432817 1.7700993652343755 3.893961711432817 Q 1.7949993652343754 3.918261711432817 1.8255993652343756 3.918261711432817 Q 1.8465993652343755 3.918261711432817 1.8618993652343754 3.905961711432817 Q 1.8771993652343755 3.893661711432817 1.8771993652343755 3.867861711432817 Q 1.8771993652343755 3.840261711432817 1.8591993652343755 3.822861711432817 Q 1.8411993652343754 3.805461711432817 1.8069993652343754 3.787461711432817 Q 1.7829993652343754 3.774261711432817 1.7688993652343754 3.764361711432817 Q 1.7547993652343754 3.754461711432817 1.7451993652343756 3.740061711432817 Q 1.7355993652343755 3.725661711432817 1.7355993652343755 3.7052617114328172 Q 1.7355993652343755 3.671061711432817 1.7619993652343755 3.651861711432817 Q 1.7883993652343755 3.6326617114328172 1.8261993652343755 3.6326617114328172 Q 1.8579993652343756 3.6326617114328172 1.8861993652343756 3.646461711432817 Q 1.8915993652343754 3.649461711432817 1.8930993652343755 3.6509617114328172 Q 1.8945993652343756 3.6524617114328173 1.8951993652343755 3.6566617114328173 L 1.8993993652343755 3.7088617114328173 Q 1.8993993652343755 3.711261711432817 1.8960993652343754 3.711861711432817 Q 1.8927993652343755 3.712461711432817 1.8921993652343754 3.710061711432817 Q 1.8891993652343755 3.695061711432817 1.8786993652343755 3.6791617114328172 Q 1.8681993652343754 3.663261711432817 1.8516993652343754 3.6524617114328173 Q 1.8351993652343754 3.641661711432817 1.8153993652343754 3.641661711432817 Q 1.7937993652343756 3.641661711432817 1.7820993652343755 3.654861711432817 Q 1.7703993652343755 3.668061711432817 1.7703993652343755 3.688461711432817 Q 1.7703993652343755 3.706461711432817 1.7796993652343756 3.719961711432817 M 2.3890078613281256 3.643461711432817 Q 2.3890078613281256 3.647061711432817 2.3878078613281257 3.647061711432817 Q 2.3704078613281254 3.647061711432817 2.3581078613281257 3.6566617114328173 Q 2.3458078613281255 3.666261711432817 2.3362078613281256 3.690861711432817 L 2.2456078613281254 3.920061711432817 Q 2.2324078613281255 3.955461711432817 2.2114078613281256 3.983061711432817 Q 2.1904078613281257 4.010661711432817 2.1670078613281256 4.022061711432817 Q 2.1652078613281254 4.023261711432817 2.1598078613281255 4.019061711432817 Q 2.1544078613281257 4.014861711432817 2.1508078613281256 4.008861711432817 Q 2.1460078613281257 3.999261711432817 2.1460078613281257 3.990861711432817 Q 2.1460078613281257 3.985461711432817 2.1478078613281255 3.985461711432817 Q 2.1790078613281256 3.980061711432817 2.2003078613281257 3.966261711432817 Q 2.2216078613281254 3.952461711432817 2.2342078613281258 3.9230617114328172 L 2.1232078613281256 3.689661711432817 Q 2.1112078613281255 3.664461711432817 2.1022078613281256 3.655761711432817 Q 2.0932078613281258 3.647061711432817 2.0776078613281257 3.647061711432817 Q 2.0758078613281254 3.647061711432817 2.0758078613281254 3.643461711432817 Q 2.0758078613281254 3.639861711432817 2.0776078613281257 3.639861711432817 L 2.1004078613281254 3.6404617114328173 Q 2.1172078613281258 3.641661711432817 2.1268078613281256 3.641661711432817 Q 2.1418078613281257 3.641661711432817 2.1634078613281256 3.6404617114328173 L 2.1874078613281256 3.639861711432817 Q 2.1886078613281255 3.639861711432817 2.1886078613281255 3.643461711432817 Q 2.1886078613281255 3.647061711432817 2.1874078613281256 3.647061711432817 Q 2.1562078613281255 3.647061711432817 2.1562078613281255 3.665661711432817 Q 2.1562078613281255 3.674061711432817 2.1610078613281254 3.683661711432817 L 2.2534078613281254 3.873861711432817 L 2.3236078613281257 3.687261711432817 Q 2.3278078613281257 3.674661711432817 2.3278078613281257 3.669261711432817 Q 2.3278078613281257 3.647061711432817 2.2876078613281257 3.647061711432817 Q 2.2858078613281254 3.647061711432817 2.2858078613281254 3.643461711432817 Q 2.2858078613281254 3.639861711432817 2.2876078613281257 3.639861711432817 L 2.3092078613281255 3.6404617114328173 Q 2.3272078613281257 3.641661711432817 2.3416078613281255 3.641661711432817 Q 2.3512078613281258 3.641661711432817 2.3656078613281255 3.6404617114328173 L 2.3878078613281257 3.639861711432817 Q 2.3890078613281256 3.639861711432817 2.3890078613281256 3.643461711432817 M 2.4771996582031255 3.908061711432817 Q 2.4444996582031253 3.888261711432817 2.4264996582031255 3.854661711432817 Q 2.4084996582031253 3.821061711432817 2.4084996582031253 3.782061711432817 Q 2.4084996582031253 3.735261711432817 2.4327996582031255 3.701361711432817 Q 2.4570996582031253 3.667461711432817 2.4945996582031253 3.650061711432817 Q 2.5320996582031254 3.6326617114328172 2.5710996582031256 3.6326617114328172 Q 2.6130996582031254 3.6326617114328172 2.6451996582031256 3.653361711432817 Q 2.6772996582031254 3.674061711432817 2.6943996582031255 3.707061711432817 Q 2.711499658203125 3.740061711432817 2.711499658203125 3.776061711432817 Q 2.711499658203125 3.816261711432817 2.6898996582031254 3.851361711432817 Q 2.6682996582031255 3.8864617114328173 2.6316996582031256 3.907161711432817 Q 2.5950996582031256 3.927861711432817 2.5518996582031255 3.927861711432817 Q 2.509899658203125 3.927861711432817 2.4771996582031255 3.908061711432817 M 2.6421996582031255 3.882261711432817 Q 2.6700996582031253 3.849261711432817 2.6700996582031253 3.791061711432817 Q 2.6700996582031253 3.750861711432817 2.6559996582031253 3.717861711432817 Q 2.6418996582031253 3.6848617114328173 2.614899658203125 3.6650617114328172 Q 2.5878996582031255 3.645261711432817 2.5506996582031256 3.645261711432817 Q 2.5026996582031256 3.645261711432817 2.4762996582031254 3.677361711432817 Q 2.4498996582031256 3.709461711432817 2.4498996582031256 3.767061711432817 Q 2.4498996582031256 3.808461711432817 2.4639996582031256 3.8420617114328173 Q 2.4780996582031256 3.875661711432817 2.5047996582031256 3.895461711432817 Q 2.5314996582031255 3.915261711432817 2.5674996582031255 3.915261711432817 Q 2.6142996582031253 3.915261711432817 2.6421996582031255 3.882261711432817 M 3.0844154785156257 3.643461711432817 Q 3.0844154785156257 3.647061711432817 3.0832154785156254 3.647061711432817 Q 3.0634154785156253 3.647061711432817 3.0541154785156257 3.650361711432817 Q 3.0448154785156256 3.653661711432817 3.0412154785156256 3.662061711432817 Q 3.0376154785156255 3.670461711432817 3.0376154785156255 3.688461711432817 L 3.0376154785156255 3.872061711432817 Q 3.0376154785156255 3.890061711432817 3.0409154785156254 3.898761711432817 Q 3.0442154785156257 3.907461711432817 3.0532154785156256 3.910461711432817 Q 3.0622154785156255 3.913461711432817 3.0814154785156256 3.913461711432817 Q 3.0832154785156254 3.913461711432817 3.0832154785156254 3.917061711432817 Q 3.0832154785156254 3.920661711432817 3.0814154785156256 3.920661711432817 L 3.0424154785156254 3.920061711432817 L 3.0124154785156256 3.920661711432817 Q 3.0052154785156255 3.920661711432817 3.0034154785156257 3.9188617114328173 Q 3.0016154785156255 3.917061711432817 3.0016154785156255 3.909261711432817 L 3.0016154785156255 3.8744617114328173 Q 2.9740154785156254 3.902061711432817 2.9461154785156256 3.914961711432817 Q 2.9182154785156253 3.927861711432817 2.8876154785156256 3.927861711432817 Q 2.8450154785156254 3.927861711432817 2.8171154785156256 3.905361711432817 Q 2.789215478515626 3.882861711432817 2.789215478515626 3.843261711432817 L 2.789215478515626 3.688461711432817 Q 2.789215478515626 3.670461711432817 2.7865154785156254 3.662061711432817 Q 2.7838154785156255 3.653661711432817 2.7763154785156257 3.650361711432817 Q 2.7688154785156254 3.647061711432817 2.7526154785156254 3.647061711432817 Q 2.7514154785156255 3.647061711432817 2.7514154785156255 3.643461711432817 Q 2.7514154785156255 3.639861711432817 2.7526154785156254 3.639861711432817 L 2.7760154785156255 3.6404617114328173 Q 2.7964154785156254 3.641661711432817 2.8072154785156256 3.641661711432817 Q 2.8222154785156257 3.641661711432817 2.8450154785156254 3.6404617114328173 L 2.8696154785156254 3.639861711432817 Q 2.8708154785156257 3.639861711432817 2.8708154785156257 3.643461711432817 Q 2.8708154785156257 3.647061711432817 2.8696154785156254 3.647061711432817 Q 2.8504154785156257 3.647061711432817 2.8411154785156256 3.650661711432817 Q 2.8318154785156255 3.654261711432817 2.8285154785156257 3.6629617114328172 Q 2.8252154785156254 3.671661711432817 2.8252154785156254 3.689661711432817 L 2.8252154785156254 3.822861711432817 Q 2.8252154785156254 3.911661711432817 2.9038154785156256 3.911661711432817 Q 2.930215478515626 3.911661711432817 2.9533154785156257 3.900261711432817 Q 2.9764154785156256 3.888861711432817 3.0016154785156255 3.8624617114328172 L 3.0016154785156255 3.689661711432817 Q 3.0016154785156255 3.671661711432817 2.9986154785156254 3.6629617114328172 Q 2.9956154785156257 3.654261711432817 2.986615478515626 3.650661711432817 Q 2.9776154785156255 3.647061711432817 2.9584154785156254 3.647061711432817 Q 2.9572154785156255 3.647061711432817 2.9572154785156255 3.643461711432817 Q 2.9572154785156255 3.639861711432817 2.9584154785156254 3.639861711432817 L 2.9848154785156256 3.6404617114328173 Q 3.0076154785156257 3.641661711432817 3.0214154785156255 3.641661711432817 Q 3.0340154785156255 3.641661711432817 3.0568154785156256 3.6404617114328173 L 3.0832154785156254 3.639861711432817 Q 3.0844154785156257 3.639861711432817 3.0844154785156257 3.643461711432817 M 3.4327321777343753 3.917061711432817 Q 3.4327321777343753 3.920661711432817 3.4315321777343755 3.920661711432817 L 3.361332177734375 3.920661711432817 Q 3.3505321777343755 3.920661711432817 3.323232177734375 3.884661711432817 Q 3.2959321777343753 3.848661711432817 3.2575321777343755 3.785061711432817 Q 3.2461321777343755 3.787461711432817 3.2317321777343753 3.787461711432817 Q 3.216732177734375 3.787461711432817 3.2089321777343756 3.786261711432817 L 3.2089321777343756 3.872061711432817 Q 3.2089321777343756 3.8906617114328172 3.2119321777343752 3.899061711432817 Q 3.2149321777343753 3.907461711432817 3.2239321777343752 3.910461711432817 Q 3.2329321777343756 3.913461711432817 3.2533321777343756 3.913461711432817 Q 3.2545321777343754 3.913461711432817 3.2545321777343754 3.917061711432817 Q 3.2545321777343754 3.920661711432817 3.2533321777343756 3.920661711432817 Q 3.236532177734375 3.920661711432817 3.2275321777343753 3.920061711432817 L 3.1897321777343755 3.919461711432817 L 3.1543321777343754 3.920061711432817 Q 3.1441321777343756 3.920661711432817 3.1267321777343753 3.920661711432817 Q 3.1255321777343754 3.920661711432817 3.1255321777343754 3.917061711432817 Q 3.1255321777343754 3.913461711432817 3.1267321777343753 3.913461711432817 Q 3.1465321777343753 3.913461711432817 3.1558321777343754 3.910461711432817 Q 3.1651321777343755 3.907461711432817 3.1687321777343755 3.898761711432817 Q 3.1723321777343756 3.890061711432817 3.1723321777343756 3.872061711432817 L 3.1723321777343756 3.688461711432817 Q 3.1723321777343756 3.670461711432817 3.1690321777343753 3.662061711432817 Q 3.1657321777343754 3.653661711432817 3.1564321777343753 3.650361711432817 Q 3.1471321777343753 3.647061711432817 3.127332177734375 3.647061711432817 Q 3.1261321777343754 3.647061711432817 3.1261321777343754 3.643461711432817 Q 3.1261321777343754 3.639861711432817 3.127332177734375 3.639861711432817 L 3.1549321777343753 3.6404617114328173 Q 3.1765321777343756 3.641661711432817 3.1897321777343755 3.641661711432817 Q 3.2005321777343756 3.641661711432817 3.2098321777343752 3.641061711432817 Q 3.2191321777343753 3.6404617114328173 3.2257321777343755 3.639861711432817 Q 3.244332177734375 3.638061711432817 3.2611321777343756 3.638061711432817 Q 3.3001321777343753 3.638061711432817 3.3205321777343753 3.653061711432817 Q 3.3409321777343752 3.668061711432817 3.3409321777343752 3.696261711432817 Q 3.3409321777343752 3.720261711432817 3.3271321777343754 3.740661711432817 Q 3.313332177734375 3.761061711432817 3.2899321777343755 3.7736617114328173 Q 3.3235321777343754 3.828861711432817 3.3466321777343753 3.858561711432817 Q 3.369732177734375 3.888261711432817 3.3892321777343755 3.900861711432817 Q 3.4087321777343753 3.913461711432817 3.4315321777343755 3.913461711432817 Q 3.4327321777343753 3.913461711432817 3.4327321777343753 3.917061711432817 M 3.2359321777343752 3.777261711432817 Q 3.273132177734375 3.777261711432817 3.2878321777343755 3.760761711432817 Q 3.3025321777343755 3.744261711432817 3.3025321777343755 3.712461711432817 Q 3.3025321777343755 3.646461711432817 3.2455321777343755 3.646461711432817 Q 3.2227321777343754 3.646461711432817 3.2158321777343755 3.656061711432817 Q 3.2089321777343756 3.665661711432817 3.2089321777343756 3.689661711432817 L 3.2089321777343756 3.775461711432817 Q 3.2197321777343753 3.777261711432817 3.2359321777343752 3.777261711432817 M 3.670949462890625 3.869661711432817 Q 3.670949462890625 3.887061711432817 3.6742494628906255 3.895461711432817 Q 3.6775494628906253 3.903861711432817 3.6868494628906254 3.907461711432817 Q 3.6961494628906255 3.9110617114328172 3.7147494628906252 3.9110617114328172 L 3.7543494628906253 3.9110617114328172 Q 3.7861494628906254 3.9110617114328172 3.8050494628906253 3.891261711432817 Q 3.823949462890625 3.871461711432817 3.8305494628906254 3.836661711432817 Q 3.8305494628906254 3.835461711432817 3.832949462890625 3.835461711432817 Q 3.8347494628906253 3.835461711432817 3.8362494628906254 3.836061711432817 Q 3.8377494628906255 3.836661711432817 3.8377494628906255 3.837861711432817 Q 3.8335494628906255 3.865461711432817 3.8335494628906255 3.911661711432817 Q 3.8335494628906255 3.916461711432817 3.8314494628906255 3.918561711432817 Q 3.829349462890625 3.920661711432817 3.824549462890625 3.920661711432817 L 3.589949462890625 3.920661711432817 Q 3.5887494628906254 3.920661711432817 3.5887494628906254 3.917061711432817 Q 3.5887494628906254 3.913461711432817 3.589949462890625 3.913461711432817 Q 3.6097494628906253 3.913461711432817 3.618749462890625 3.910461711432817 Q 3.6277494628906255 3.907461711432817 3.630749462890625 3.898761711432817 Q 3.6337494628906253 3.890061711432817 3.6337494628906253 3.872061711432817 L 3.6337494628906253 3.688461711432817 Q 3.6337494628906253 3.670461711432817 3.6304494628906254 3.662061711432817 Q 3.627149462890625 3.653661711432817 3.6181494628906252 3.650361711432817 Q 3.6091494628906253 3.647061711432817 3.589949462890625 3.647061711432817 Q 3.5887494628906254 3.647061711432817 3.5887494628906254 3.643461711432817 Q 3.5887494628906254 3.639861711432817 3.589949462890625 3.639861711432817 L 3.6169494628906254 3.6404617114328173 Q 3.6397494628906255 3.641661711432817 3.6523494628906255 3.641661711432817 Q 3.667349462890625 3.641661711432817 3.6901494628906253 3.6404617114328173 L 3.715349462890625 3.639861711432817 Q 3.7171494628906254 3.639861711432817 3.7171494628906254 3.643461711432817 Q 3.7171494628906254 3.647061711432817 3.715349462890625 3.647061711432817 Q 3.695549462890625 3.647061711432817 3.6865494628906252 3.650361711432817 Q 3.6775494628906253 3.653661711432817 3.6742494628906255 3.6623617114328173 Q 3.670949462890625 3.671061711432817 3.670949462890625 3.6890617114328172 L 3.670949462890625 3.869661711432817 M 3.9583570800781254 3.899061711432817 Q 3.9616570800781252 3.907461711432817 3.970657080078125 3.910461711432817 Q 3.9796570800781255 3.913461711432817 4.000057080078125 3.913461711432817 Q 4.001257080078125 3.913461711432817 4.001257080078125 3.917061711432817 Q 4.001257080078125 3.920661711432817 4.000057080078125 3.920661711432817 Q 3.983257080078125 3.920661711432817 3.9736570800781252 3.920061711432817 L 3.9358570800781254 3.919461711432817 L 3.9004570800781253 3.920061711432817 Q 3.890257080078125 3.920661711432817 3.8728570800781252 3.920661711432817 Q 3.8716570800781254 3.920661711432817 3.8716570800781254 3.917061711432817 Q 3.8716570800781254 3.913461711432817 3.8728570800781252 3.913461711432817 Q 3.893257080078125 3.913461711432817 3.902257080078125 3.910461711432817 Q 3.9112570800781254 3.907461711432817 3.9145570800781253 3.899061711432817 Q 3.917857080078125 3.8906617114328172 3.917857080078125 3.872061711432817 L 3.917857080078125 3.688461711432817 Q 3.917857080078125 3.670461711432817 3.9145570800781253 3.662061711432817 Q 3.9112570800781254 3.653661711432817 3.9019570800781254 3.650361711432817 Q 3.8926570800781253 3.647061711432817 3.8728570800781252 3.647061711432817 Q 3.8716570800781254 3.647061711432817 3.8716570800781254 3.643461711432817 Q 3.8716570800781254 3.639861711432817 3.8728570800781252 3.639861711432817 L 3.9004570800781253 3.6404617114328173 Q 3.922057080078125 3.641661711432817 3.9358570800781254 3.641661711432817 Q 3.9514570800781255 3.641661711432817 3.974257080078125 3.6404617114328173 L 4.000057080078125 3.639861711432817 Q 4.001257080078125 3.639861711432817 4.001257080078125 3.643461711432817 Q 4.001257080078125 3.647061711432817 4.000057080078125 3.647061711432817 Q 3.9808570800781253 3.647061711432817 3.971257080078125 3.650661711432817 Q 3.9616570800781252 3.654261711432817 3.9583570800781254 3.6629617114328172 Q 3.955057080078125 3.671661711432817 3.955057080078125 3.689661711432817 L 3.955057080078125 3.872061711432817 Q 3.955057080078125 3.8906617114328172 3.9583570800781254 3.899061711432817 M 4.261974951171875 3.681861711432817 Q 4.262574951171875 3.6932617114328172 4.262574951171875 3.710661711432817 Q 4.262574951171875 3.712461711432817 4.258974951171875 3.712461711432817 Q 4.255374951171875 3.712461711432817 4.255374951171875 3.710661711432817 Q 4.252374951171875 3.681861711432817 4.235574951171875 3.664761711432817 Q 4.218774951171875 3.647661711432817 4.191774951171875 3.647661711432817 L 4.174974951171875 3.647661711432817 Q 4.153974951171875 3.647661711432817 4.1443749511718755 3.6509617114328172 Q 4.134774951171876 3.654261711432817 4.131174951171875 3.662661711432817 Q 4.127574951171876 3.671061711432817 4.127574951171876 3.6890617114328172 L 4.127574951171876 3.7778617114328172 Q 4.185174951171875 3.777261711432817 4.2064749511718755 3.774861711432817 Q 4.227774951171876 3.772461711432817 4.230774951171875 3.772461711432817 Q 4.233774951171875 3.772461711432817 4.233774951171875 3.785061711432817 Q 4.233774951171875 3.798861711432817 4.230774951171875 3.798861711432817 Q 4.228374951171875 3.798861711432817 4.207074951171875 3.795561711432817 Q 4.185774951171875 3.792261711432817 4.127574951171876 3.791061711432817 L 4.127574951171876 3.869661711432817 Q 4.127574951171876 3.888861711432817 4.1317749511718755 3.897561711432817 Q 4.1359749511718755 3.906261711432817 4.148274951171875 3.909861711432817 Q 4.160574951171875 3.913461711432817 4.186974951171875 3.913461711432817 Q 4.188774951171875 3.913461711432817 4.188774951171875 3.917061711432817 Q 4.188774951171875 3.920661711432817 4.186974951171875 3.920661711432817 Q 4.165374951171875 3.920661711432817 4.153974951171875 3.920061711432817 L 4.108974951171875 3.919461711432817 L 4.076574951171875 3.920061711432817 Q 4.066374951171875 3.920661711432817 4.046574951171875 3.920661711432817 Q 4.045374951171875 3.920661711432817 4.045374951171875 3.917061711432817 Q 4.045374951171875 3.913461711432817 4.046574951171875 3.913461711432817 Q 4.066374951171875 3.913461711432817 4.0753749511718755 3.910461711432817 Q 4.084374951171875 3.907461711432817 4.087674951171875 3.898761711432817 Q 4.090974951171876 3.890061711432817 4.090974951171876 3.872061711432817 L 4.090974951171876 3.688461711432817 Q 4.090974951171876 3.670461711432817 4.087674951171875 3.662061711432817 Q 4.084374951171875 3.653661711432817 4.0753749511718755 3.650361711432817 Q 4.066374951171875 3.647061711432817 4.046574951171875 3.647061711432817 Q 4.045374951171875 3.647061711432817 4.045374951171875 3.643461711432817 Q 4.045374951171875 3.639861711432817 4.046574951171875 3.639861711432817 L 4.255374951171875 3.639861711432817 Q 4.2613749511718755 3.639861711432817 4.2613749511718755 3.6446617114328173 L 4.261974951171875 3.681861711432817 M 4.5280761230468745 3.888261711432817 Q 4.529876123046875 3.888261711432817 4.531376123046875 3.890361711432817 Q 4.532876123046875 3.892461711432817 4.531676123046875 3.894261711432817 Q 4.489076123046875 3.927861711432817 4.438676123046875 3.927861711432817 Q 4.396076123046875 3.927861711432817 4.365776123046874 3.907761711432817 Q 4.335476123046875 3.887661711432817 4.320176123046875 3.855261711432817 Q 4.304876123046875 3.822861711432817 4.304876123046875 3.7856617114328173 Q 4.304876123046875 3.744261711432817 4.324676123046875 3.709161711432817 Q 4.344476123046875 3.674061711432817 4.377476123046875 3.653661711432817 Q 4.410476123046875 3.633261711432817 4.449476123046875 3.633261711432817 Q 4.489676123046875 3.633261711432817 4.510076123046875 3.655461711432817 Q 4.530476123046875 3.677661711432817 4.530476123046875 3.715461711432817 Q 4.530476123046875 3.7214617114328172 4.528976123046875 3.724161711432817 Q 4.527476123046875 3.726861711432817 4.523276123046875 3.726861711432817 L 4.348676123046875 3.727461711432817 Q 4.345076123046875 3.744261711432817 4.345076123046875 3.764661711432817 Q 4.345076123046875 3.805461711432817 4.358876123046874 3.838161711432817 Q 4.372676123046875 3.870861711432817 4.398776123046875 3.889461711432817 Q 4.424876123046875 3.908061711432817 4.460276123046874 3.908061711432817 Q 4.500476123046875 3.908061711432817 4.527476123046875 3.888261711432817 L 4.5280761230468745 3.888261711432817 M 4.380776123046875 3.664761711432817 Q 4.359476123046875 3.684261711432817 4.3504761230468745 3.718461711432817 L 4.488476123046874 3.716061711432817 Q 4.489076123046875 3.681861711432817 4.474376123046874 3.663561711432817 Q 4.459676123046875 3.645261711432817 4.4308761230468745 3.645261711432817 Q 4.402076123046875 3.645261711432817 4.380776123046875 3.664761711432817 M 4.934896923828124 3.888261711432817 Q 4.936696923828125 3.888261711432817 4.938196923828125 3.890361711432817 Q 4.939696923828125 3.892461711432817 4.938496923828125 3.894261711432817 Q 4.895896923828125 3.927861711432817 4.845496923828125 3.927861711432817 Q 4.802896923828125 3.927861711432817 4.772596923828124 3.907761711432817 Q 4.742296923828125 3.887661711432817 4.726996923828125 3.855261711432817 Q 4.711696923828125 3.822861711432817 4.711696923828125 3.7856617114328173 Q 4.711696923828125 3.744261711432817 4.731496923828125 3.709161711432817 Q 4.751296923828125 3.674061711432817 4.7842969238281245 3.653661711432817 Q 4.817296923828125 3.633261711432817 4.856296923828125 3.633261711432817 Q 4.896496923828125 3.633261711432817 4.916896923828125 3.655461711432817 Q 4.937296923828125 3.677661711432817 4.937296923828125 3.715461711432817 Q 4.937296923828125 3.7214617114328172 4.935796923828125 3.724161711432817 Q 4.934296923828125 3.726861711432817 4.930096923828125 3.726861711432817 L 4.755496923828125 3.727461711432817 Q 4.751896923828125 3.744261711432817 4.751896923828125 3.764661711432817 Q 4.751896923828125 3.805461711432817 4.765696923828124 3.838161711432817 Q 4.779496923828125 3.870861711432817 4.805596923828125 3.889461711432817 Q 4.831696923828125 3.908061711432817 4.867096923828124 3.908061711432817 Q 4.907296923828125 3.908061711432817 4.934296923828125 3.888261711432817 L 4.934896923828124 3.888261711432817 M 4.787596923828125 3.664761711432817 Q 4.766296923828125 3.684261711432817 4.757296923828124 3.718461711432817 L 4.895296923828124 3.716061711432817 Q 4.895896923828125 3.681861711432817 4.881196923828124 3.663561711432817 Q 4.866496923828125 3.645261711432817 4.837696923828124 3.645261711432817 Q 4.808896923828125 3.645261711432817 4.787596923828125 3.664761711432817 M 5.250215673828125 3.887661711432817 Q 5.252615673828125 3.887661711432817 5.253515673828125 3.890361711432817 Q 5.254415673828125 3.893061711432817 5.252015673828125 3.894261711432817 L 5.189015673828125 3.924261711432817 Q 5.186615673828125 3.925461711432817 5.184815673828125 3.925461711432817 Q 5.1752156738281245 3.925461711432817 5.165915673828125 3.913761711432817 Q 5.156615673828125 3.902061711432817 5.154215673828125 3.881661711432817 L 5.1146156738281245 3.903861711432817 Q 5.093615673828125 3.915261711432817 5.079815673828125 3.920061711432817 Q 5.066015673828125 3.924861711432817 5.0540156738281246 3.924861711432817 Q 5.033015673828125 3.924861711432817 5.018615673828125 3.912261711432817 Q 5.004215673828125 3.899661711432817 5.004215673828125 3.883461711432817 Q 5.004215673828125 3.860661711432817 5.019215673828125 3.846861711432817 Q 5.0342156738281245 3.833061711432817 5.075015673828125 3.8180617114328173 L 5.153615673828125 3.789261711432817 L 5.153615673828125 3.718461711432817 Q 5.153615673828125 3.681861711432817 5.143115673828125 3.6650617114328172 Q 5.132615673828125 3.6482617114328173 5.110415673828125 3.6482617114328173 Q 5.082815673828125 3.6482617114328173 5.069915673828125 3.665361711432817 Q 5.057015673828125 3.682461711432817 5.049815673828125 3.710061711432817 Q 5.046815673828125 3.720261711432817 5.041715673828125 3.726561711432817 Q 5.036615673828125 3.732861711432817 5.026415673828125 3.732861711432817 Q 5.016815673828125 3.732861711432817 5.010815673828125 3.7271617114328173 Q 5.004815673828125 3.7214617114328172 5.004815673828125 3.7130617114328173 Q 5.004815673828125 3.698061711432817 5.026115673828125 3.679461711432817 Q 5.047415673828125 3.6608617114328172 5.078015673828125 3.647661711432817 Q 5.108615673828125 3.634461711432817 5.133215673828125 3.634461711432817 Q 5.159015673828125 3.634461711432817 5.174615673828125 3.6509617114328172 Q 5.190215673828125 3.667461711432817 5.190215673828125 3.700461711432817 L 5.190215673828125 3.8504617114328172 Q 5.190215673828125 3.895461711432817 5.219615673828125 3.895461711432817 Q 5.2316156738281245 3.895461711432817 5.249015673828125 3.887661711432817 L 5.250215673828125 3.887661711432817 M 5.153615673828125 3.873261711432817 L 5.153615673828125 3.870861711432817 L 5.153615673828125 3.797061711432817 L 5.087615673828125 3.822861711432817 Q 5.065415673828125 3.831261711432817 5.056715673828125 3.8420617114328173 Q 5.048015673828125 3.852861711432817 5.048015673828125 3.867861711432817 Q 5.048015673828125 3.882861711432817 5.057615673828125 3.893061711432817 Q 5.067215673828125 3.903261711432817 5.080415673828125 3.903261711432817 Q 5.0948156738281245 3.903261711432817 5.112215673828125 3.894261711432817 L 5.153615673828125 3.873261711432817 M 5.334232080078125 3.719961711432817 Q 5.343532080078125 3.7334617114328172 5.357332080078125 3.742461711432817 Q 5.371132080078125 3.751461711432817 5.393932080078125 3.763461711432817 Q 5.4185320800781245 3.776661711432817 5.433532080078125 3.786561711432817 Q 5.448532080078125 3.796461711432817 5.458732080078125 3.811461711432817 Q 5.468932080078125 3.826461711432817 5.468932080078125 3.847461711432817 Q 5.468932080078125 3.869661711432817 5.4566320800781245 3.887961711432817 Q 5.444332080078125 3.906261711432817 5.421532080078125 3.917061711432817 Q 5.398732080078124 3.927861711432817 5.368132080078125 3.927861711432817 Q 5.324332080078125 3.927861711432817 5.295532080078125 3.9068617114328172 Q 5.292532080078125 3.905661711432817 5.2916320800781245 3.903261711432817 Q 5.290732080078125 3.900861711432817 5.290132080078124 3.895461711432817 L 5.284132080078125 3.836061711432817 Q 5.283532080078125 3.833661711432817 5.286832080078125 3.833061711432817 Q 5.290132080078124 3.832461711432817 5.291332080078125 3.834861711432817 Q 5.299732080078125 3.869661711432817 5.324632080078125 3.893961711432817 Q 5.3495320800781245 3.918261711432817 5.380132080078125 3.918261711432817 Q 5.401132080078125 3.918261711432817 5.416432080078125 3.905961711432817 Q 5.431732080078125 3.893661711432817 5.431732080078125 3.867861711432817 Q 5.431732080078125 3.840261711432817 5.413732080078125 3.822861711432817 Q 5.395732080078125 3.805461711432817 5.361532080078125 3.787461711432817 Q 5.337532080078125 3.774261711432817 5.323432080078125 3.764361711432817 Q 5.309332080078125 3.754461711432817 5.299732080078125 3.740061711432817 Q 5.290132080078124 3.725661711432817 5.290132080078124 3.7052617114328172 Q 5.290132080078124 3.671061711432817 5.316532080078125 3.651861711432817 Q 5.342932080078125 3.6326617114328172 5.380732080078125 3.6326617114328172 Q 5.412532080078125 3.6326617114328172 5.440732080078125 3.646461711432817 Q 5.446132080078125 3.649461711432817 5.447632080078125 3.6509617114328172 Q 5.449132080078125 3.6524617114328173 5.449732080078125 3.6566617114328173 L 5.453932080078125 3.7088617114328173 Q 5.453932080078125 3.711261711432817 5.450632080078125 3.711861711432817 Q 5.447332080078125 3.712461711432817 5.4467320800781245 3.710061711432817 Q 5.443732080078124 3.695061711432817 5.433232080078125 3.6791617114328172 Q 5.4227320800781245 3.663261711432817 5.406232080078125 3.6524617114328173 Q 5.389732080078125 3.641661711432817 5.369932080078125 3.641661711432817 Q 5.348332080078125 3.641661711432817 5.336632080078124 3.654861711432817 Q 5.324932080078125 3.668061711432817 5.324932080078125 3.688461711432817 Q 5.324932080078125 3.706461711432817 5.334232080078125 3.719961711432817 M 5.8016353027343746 3.643461711432817 Q 5.8016353027343746 3.647061711432817 5.800435302734375 3.647061711432817 Q 5.783035302734374 3.647061711432817 5.770735302734375 3.6566617114328173 Q 5.758435302734375 3.666261711432817 5.748835302734374 3.690861711432817 L 5.658235302734375 3.920061711432817 Q 5.6450353027343745 3.955461711432817 5.624035302734375 3.983061711432817 Q 5.603035302734375 4.010661711432817 5.579635302734374 4.022061711432817 Q 5.577835302734375 4.023261711432817 5.572435302734375 4.019061711432817 Q 5.567035302734374 4.014861711432817 5.563435302734375 4.008861711432817 Q 5.558635302734374 3.999261711432817 5.558635302734374 3.990861711432817 Q 5.558635302734374 3.985461711432817 5.5604353027343745 3.985461711432817 Q 5.591635302734375 3.980061711432817 5.612935302734375 3.966261711432817 Q 5.634235302734375 3.952461711432817 5.646835302734375 3.9230617114328172 L 5.535835302734375 3.689661711432817 Q 5.5238353027343745 3.664461711432817 5.514835302734374 3.655761711432817 Q 5.505835302734375 3.647061711432817 5.490235302734375 3.647061711432817 Q 5.488435302734374 3.647061711432817 5.488435302734374 3.643461711432817 Q 5.488435302734374 3.639861711432817 5.490235302734375 3.639861711432817 L 5.513035302734375 3.6404617114328173 Q 5.529835302734375 3.641661711432817 5.539435302734375 3.641661711432817 Q 5.554435302734374 3.641661711432817 5.5760353027343745 3.6404617114328173 L 5.6000353027343746 3.639861711432817 Q 5.601235302734374 3.639861711432817 5.601235302734374 3.643461711432817 Q 5.601235302734374 3.647061711432817 5.6000353027343746 3.647061711432817 Q 5.568835302734374 3.647061711432817 5.568835302734374 3.665661711432817 Q 5.568835302734374 3.674061711432817 5.573635302734375 3.683661711432817 L 5.666035302734374 3.873861711432817 L 5.736235302734374 3.687261711432817 Q 5.740435302734374 3.674661711432817 5.740435302734374 3.669261711432817 Q 5.740435302734374 3.647061711432817 5.700235302734375 3.647061711432817 Q 5.698435302734374 3.647061711432817 5.698435302734374 3.643461711432817 Q 5.698435302734374 3.639861711432817 5.700235302734375 3.639861711432817 L 5.721835302734375 3.6404617114328173 Q 5.739835302734375 3.641661711432817 5.754235302734375 3.641661711432817 Q 5.763835302734375 3.641661711432817 5.778235302734375 3.6404617114328173 L 5.800435302734375 3.639861711432817 Q 5.8016353027343746 3.639861711432817 5.8016353027343746 3.643461711432817" fill="#173054" fill-rule="nonzero"></path></g></g><defs><clipPath id="SvgjsClipPath42809"><path d=" M -1.1 -2.4064617114328173 h 6.29796142578125 v 5.444923422865634 h -6.29796142578125 Z"></path></clipPath></defs></svg>